<svg width="36" height="41" viewBox="0 0 36 41" fill="none" xmlns="http://www.w3.org/2000/svg">
<g clip-path="url(#clip0_2_5404)">
<mask id="mask0_2_5404" style="mask-type:luminance" maskUnits="userSpaceOnUse" x="0" y="0" width="36" height="41">
<path d="M36 0.941406H0V40.8922H36V0.941406Z" fill="white"/>
</mask>
<g mask="url(#mask0_2_5404)">
<path fill-rule="evenodd" clip-rule="evenodd" d="M10.8638 3.0511C10.2339 3.14796 9.24956 3.35234 8.67642 3.5052C7.93016 3.70419 7.42174 3.76405 6.88538 3.71588C5.83371 3.62172 5.53077 3.70753 4.86185 4.28958C4.12833 4.92776 2.45907 7.68758 1.18738 10.3649C0.121805 12.6082 -0.0672932 13.3012 0.018093 14.6487C0.126223 16.3544 1.4295 19.0412 2.57279 19.9155C4.03553 21.0343 4.7081 21.178 7.12855 20.889C8.0895 20.7743 9.30921 20.7019 9.83881 20.7284C10.7214 20.7725 10.8315 20.8095 11.1591 21.1718C11.437 21.4791 11.5364 21.7503 11.6058 22.3891C11.7372 23.5977 12.0279 24.505 12.6307 25.5874C13.2739 26.7424 13.3188 27.4195 12.8527 28.9273C12.4077 30.3663 12.443 31.5164 12.9773 32.9738C13.713 34.9809 14.1199 36.31 14.2188 37.0298C14.4773 38.9094 15.0913 39.9663 16.2585 40.5413C17.0719 40.942 17.8463 40.9706 18.9183 40.6398C19.8711 40.3459 20.4884 39.9576 21.5748 38.9692C22.4935 38.1333 22.9386 37.4092 23.8787 35.2218C24.1672 34.5506 24.8548 33.3367 25.4068 32.5242C26.8148 30.4517 27.0678 29.8651 27.0686 28.6714C27.0689 28.141 27.0207 27.1494 26.9614 26.4681C26.8628 25.3334 26.8774 25.1807 27.1368 24.6509C27.2927 24.3328 28.0337 23.4163 28.7838 22.6141C29.5339 21.8118 30.3581 20.8549 30.6155 20.4875L31.0833 19.8194L24.0208 12.7478C20.1365 8.85835 16.914 5.67616 16.8601 5.67616C16.806 5.67616 16.5652 5.76891 16.3248 5.88221C15.9054 6.07991 15.8612 6.0749 15.2285 5.75799C14.4502 5.36812 14.113 4.98056 13.8366 4.15803C13.725 3.82558 13.4851 3.39537 13.3035 3.20191C12.9214 2.79457 12.6438 2.77735 10.8638 3.0511ZM75.7241 9.08881C74.6225 9.88757 74.5869 9.92945 74.5869 10.4283V10.943H74.0021H73.4173V11.9707V12.9983H73.9855H74.5536L74.612 14.7647C74.6805 16.8344 74.8127 17.2093 75.7764 18.0657C76.418 18.6358 77.1446 18.9438 78.1934 19.0903L78.7458 19.1675V18.0098C78.7458 16.8566 78.7445 16.8521 78.4167 16.8521C77.9331 16.8521 77.2278 16.5266 77.0666 16.2291C76.9893 16.0863 76.9263 15.3027 76.9263 14.4841V12.9983H77.901H78.8757V11.9707V10.943H77.9054H76.9351L76.8982 9.60355L76.8613 8.2641L75.7241 9.08881ZM43.0382 11.1298C42.5131 11.4265 42.4858 11.4296 42.4858 11.1925C42.4858 10.9639 42.3876 10.943 41.3162 10.943H40.1465V14.9895V19.036H41.3162H42.4858L42.4866 16.8843C42.4874 14.4514 42.578 13.9761 43.1426 13.4414C43.4731 13.1285 43.6505 13.064 44.1827 13.0633L44.8244 13.0626L44.8248 11.9385L44.8252 10.8145L44.2079 10.8161C43.7946 10.8171 43.4079 10.9208 43.0382 11.1298ZM48.151 11.125C46.5978 11.7718 45.7283 13.0179 45.6341 14.7326C45.5842 15.6376 45.6188 15.8524 45.9233 16.531C46.3291 17.4359 46.726 17.8855 47.6307 18.4651C49.2596 19.5086 51.9003 19.2125 53.1338 17.848L53.5035 17.4391L52.5842 16.7591L51.6648 16.0793L51.2969 16.4277C50.9885 16.7197 50.7877 16.7846 50.054 16.829C49.5728 16.8581 49.2082 16.8527 49.244 16.8168C49.2797 16.781 50.2739 16.0732 51.4534 15.2437C52.6328 14.4144 53.6466 13.6921 53.7063 13.6387C54.0253 13.3534 52.6425 11.7313 51.6535 11.2307C50.6744 10.735 49.1946 10.6904 48.151 11.125ZM57.9085 11.1182C57.3397 11.4029 57.3017 11.4069 57.3017 11.1824C57.3017 10.9665 57.1866 10.943 56.1321 10.943H54.9624V16.9164V22.8897H56.1321H57.3017V20.6932V18.4967L57.7891 18.7939C58.1828 19.034 58.4527 19.0897 59.1932 19.083C60.6595 19.07 61.943 18.3089 62.7388 16.9806C63.0574 16.4487 63.0851 16.2898 63.0851 14.9895C63.0851 13.431 62.9971 13.1643 62.1376 12.1157C61.1519 10.9133 59.226 10.459 57.9085 11.1182ZM66.984 10.994C65.2893 11.641 64.3333 12.9273 64.2218 14.7104C64.1757 15.4486 64.2219 15.7829 64.4544 16.3921C64.9677 17.7362 66.1962 18.7771 67.5788 19.0393C68.4584 19.2062 69.1223 19.1029 69.7116 18.7076L70.1682 18.4014V18.7187C70.1682 19.0326 70.1806 19.036 71.3378 19.036H72.5075V14.9895V10.943H71.3378C70.2603 10.943 70.1682 10.9629 70.1682 11.1963C70.1682 11.4392 70.1433 11.4365 69.5639 11.1321C68.8942 10.7801 67.7103 10.7168 66.984 10.994ZM49.049 13.1754C48.5689 13.3916 48.1365 13.8445 47.953 14.3234C47.7889 14.7516 47.7719 15.2695 47.9191 15.3595C48.0005 15.4092 50.4357 13.7902 50.7565 13.4731C50.8606 13.3701 50.4029 13.1594 49.8914 13.0746C49.6248 13.0306 49.2787 13.0719 49.049 13.1754ZM67.5715 13.2234C66.5774 13.7171 66.2041 15.0815 66.8017 16.0372C67.548 17.2307 69.4309 17.101 70.0711 15.8119C70.5374 14.8731 70.034 13.5836 69.0412 13.1736C68.4773 12.9407 68.116 12.9529 67.5715 13.2234ZM57.9762 13.3871C56.8622 14.0584 56.9194 16.0655 58.0693 16.6532C58.6083 16.9287 59.4881 16.9043 59.9933 16.5997C60.6167 16.224 60.9867 15.4194 60.875 14.6825C60.8052 14.2225 60.671 13.9833 60.2726 13.6086C59.8147 13.1782 59.688 13.1268 59.0833 13.1273C58.6339 13.1276 58.2619 13.2149 57.9762 13.3871ZM51.568 24.6086C50.133 25.1154 49.1692 26.2557 48.9222 27.7391C48.8333 28.2731 48.82 28.285 48.3228 28.285H47.8144V29.3769V30.4688H48.3342H48.8541V33.4234V36.3779H50.0238H51.1934V33.4234V30.4688H51.9732H52.753V29.3769V28.285H51.9732C51.2219 28.285 51.1934 28.2729 51.1934 27.954C51.1934 27.506 51.8205 26.9119 52.4086 26.8029L52.883 26.7149V25.5731V24.4312L52.4606 24.4369C52.2282 24.44 51.8266 24.5173 51.568 24.6086ZM59.8666 24.7571C59.4322 25.1866 59.3362 25.6176 59.5579 26.1422C59.9069 26.9677 60.9927 27.1709 61.6394 26.5317C62.0721 26.104 62.1593 25.6637 61.913 25.1506C61.5435 24.3813 60.4582 24.1725 59.8666 24.7571ZM30.5861 27.1128C30.0079 27.4613 29.1687 28.478 28.6383 29.4727C27.4141 31.7686 27.35 33.324 28.4421 34.2323C29.5435 35.1483 30.3295 34.3388 31.4271 31.158C31.847 29.9411 31.967 29.4022 31.9736 28.7011C31.9826 27.756 31.755 27.0984 31.3681 26.9517C31.0681 26.8379 31.0285 26.8461 30.5861 27.1128ZM41.3871 28.294C40.6463 28.4762 39.679 29.1318 39.1602 29.8034C37.9155 31.4147 38.1149 34.0184 39.5857 35.3585C40.8304 36.4925 42.4873 36.8268 43.7011 36.1889C44.2805 35.8844 44.3053 35.8817 44.3053 36.1246C44.3053 36.358 44.3975 36.3779 45.475 36.3779H46.6447V32.3315V28.285H45.475C44.392 28.285 44.3053 28.304 44.3053 28.5419C44.3053 28.8596 44.2942 28.8595 43.7351 28.5333C43.2044 28.2239 42.1212 28.1135 41.3871 28.294ZM56.8688 28.4602C56.3 28.7449 56.262 28.7489 56.262 28.5245C56.262 28.3085 56.1469 28.285 55.0923 28.285H53.9227V32.3315V36.3779H55.0923H56.262V34.0848C56.262 32.7632 56.3219 31.6219 56.4034 31.3906C56.5956 30.8457 57.2482 30.4688 57.9994 30.4688H58.6014V29.3127V28.1566H58.0385C57.7046 28.1566 57.229 28.28 56.8688 28.4602ZM66.5739 28.2857C65.809 28.4419 65.1102 28.8225 64.4824 29.4247C63.8142 30.0656 63.4751 30.7051 63.2963 31.6612C62.9527 33.4984 63.8819 35.3115 65.5943 36.1452C66.103 36.3928 66.4092 36.4419 67.4389 36.4405C68.4724 36.4392 68.7645 36.3912 69.2318 36.146C70.1014 35.6895 70.7728 35.0141 71.2032 34.1629C71.8217 32.9395 71.8035 32.909 70.4606 32.9124L69.3234 32.9151L69.1284 33.3286C69.0212 33.5561 68.7288 33.8779 68.4786 34.0437C68.0969 34.2968 67.9005 34.3369 67.2576 34.2923C66.576 34.2451 66.4443 34.1884 66.0634 33.7774C65.3054 32.96 65.3104 31.8505 66.0752 31.0721C66.7953 30.3391 67.7998 30.313 68.7566 31.0026C68.9347 31.1309 69.111 31.0447 69.8345 30.4756C70.6803 29.8103 70.6945 29.7895 70.4664 29.539C69.5725 28.5571 67.8925 28.0161 66.5739 28.2857ZM75.4088 28.3337C74.2328 28.7139 73.364 29.4912 72.8166 30.6532C72.4121 31.5117 72.3898 32.9742 72.7659 33.9678C73.5039 35.9175 76.1899 37.1031 77.8035 36.1912C78.3286 35.8944 78.3559 35.8913 78.3559 36.1285C78.3559 36.357 78.4541 36.3779 79.5256 36.3779H80.6952V32.3315V28.285H79.5256C78.4492 28.285 78.3559 28.3052 78.3559 28.5376C78.3559 28.7864 78.3491 28.7863 77.902 28.5255C77.3283 28.191 76.1347 28.0991 75.4088 28.3337ZM59.5111 32.3315V36.3779H60.6808H61.8505V32.3315V28.285H60.6808H59.5111V32.3315ZM41.836 30.5526C41.1849 30.811 40.6664 31.628 40.6664 32.3957C40.6664 33.7599 41.9178 34.621 43.1979 34.1377C44.4985 33.6468 44.7983 31.831 43.7383 30.8649C43.4864 30.6353 43.2195 30.5441 42.7143 30.5148C42.3385 30.4931 41.9432 30.5101 41.836 30.5526ZM76.0165 30.5595C75.3796 30.7897 74.8469 31.6259 74.8469 32.3957C74.8469 34.311 77.322 35.0048 78.2958 33.3625C78.5672 32.9048 78.6085 32.7134 78.5367 32.2495C78.4162 31.4734 78.1555 31.0148 77.6672 30.7206C77.27 30.4812 76.4537 30.4015 76.0165 30.5595Z" fill="#B01C26"/>
<path fill-rule="evenodd" clip-rule="evenodd" d="M23.3856 1.36677L22.7813 7.24579C22.7481 7.56791 22.3523 7.70854 22.1192 7.48091L19.0906 4.52181C18.9255 4.36057 18.9386 4.09343 19.1186 3.94873L22.7518 1.0288C23.021 0.812367 23.4207 1.02546 23.3856 1.36677ZM29.0839 6.63242L23.8553 8.18872C23.5752 8.27207 23.4844 8.6192 23.6883 8.82641L27.5474 12.7483C27.7607 12.9651 28.132 12.8656 28.2054 12.572L29.5749 7.09387C29.6473 6.80402 29.3732 6.54633 29.0839 6.63242ZM35.2271 13.3743H29.2487C28.9017 13.3743 28.7275 13.7889 28.9726 14.0318L32.2788 17.3092C32.4427 17.4715 32.7128 17.4574 32.8585 17.2788L35.5307 14.0015C35.7363 13.7494 35.5548 13.3743 35.2271 13.3743Z" fill="#F7AB33"/>
</g>
</g>
<defs>
<clipPath id="clip0_2_5404">
<rect width="36" height="39.9508" fill="white" transform="translate(0 0.941406)"/>
</clipPath>
</defs>
</svg>
