<svg width="137" height="137" viewBox="0 0 137 137" fill="none" xmlns="http://www.w3.org/2000/svg">
<g filter="url(#filter0_d_2_5460)">
<circle cx="69" cy="69" r="50" fill="#FFCD7E"/>
</g>
<path d="M88 73V69C88 61.4575 88 57.6863 85.6569 55.3431C83.3137 53 79.5425 53 72 53H64C56.4575 53 52.6863 53 50.3431 55.3431C48 57.6863 48 61.4575 48 69V73C48 80.5425 48 84.3137 50.3431 86.6569C52.6863 89 56.4575 89 64 89H72" stroke="white" stroke-width="2" stroke-linecap="round"/>
<path d="M58 53V50" stroke="white" stroke-width="2" stroke-linecap="round"/>
<path d="M78 53V50" stroke="white" stroke-width="2" stroke-linecap="round"/>
<circle cx="80" cy="81" r="6" stroke="white" stroke-width="2"/>
<path d="M85 86L88 89" stroke="white" stroke-width="2" stroke-linecap="round"/>
<path d="M49 63H87" stroke="white" stroke-width="2" stroke-linecap="round"/>
<path d="M137 68.5C137 106.332 106.332 137 68.5 137C30.6685 137 0 106.332 0 68.5C0 30.6685 30.6685 0 68.5 0C106.332 0 137 30.6685 137 68.5ZM4.44212 68.5C4.44212 103.878 33.1218 132.558 68.5 132.558C103.878 132.558 132.558 103.878 132.558 68.5C132.558 33.1218 103.878 4.44212 68.5 4.44212C33.1218 4.44212 4.44212 33.1218 4.44212 68.5Z" fill="url(#paint0_linear_2_5460)"/>
<defs>
<filter id="filter0_d_2_5460" x="9" y="14" width="120" height="120" filterUnits="userSpaceOnUse" color-interpolation-filters="sRGB">
<feFlood flood-opacity="0" result="BackgroundImageFix"/>
<feColorMatrix in="SourceAlpha" type="matrix" values="0 0 0 0 0 0 0 0 0 0 0 0 0 0 0 0 0 0 127 0" result="hardAlpha"/>
<feOffset dy="5"/>
<feGaussianBlur stdDeviation="5"/>
<feColorMatrix type="matrix" values="0 0 0 0 0.933333 0 0 0 0 0.819225 0 0 0 0 0.801111 0 0 0 0.27 0"/>
<feBlend mode="normal" in2="BackgroundImageFix" result="effect1_dropShadow_2_5460"/>
<feBlend mode="normal" in="SourceGraphic" in2="effect1_dropShadow_2_5460" result="shape"/>
</filter>
<linearGradient id="paint0_linear_2_5460" x1="68" y1="-127" x2="69.0661" y2="161" gradientUnits="userSpaceOnUse">
<stop offset="0.359375" stop-color="#FFCD7E"/>
<stop offset="0.867315" stop-color="#FDF6E4"/>
</linearGradient>
</defs>
</svg>
